<svg xmlns="http://www.w3.org/2000/svg" width="63mm" height="88mm" viewBox="0 0 63 88">
  <defs>
    <rect id="title_text_frame" data-svgedit-frame-for="shape-inside" data-svgedit-text-frame="true" x="7" y="5" width="38" height="8" fill="none" opacity="0.5"/>
    <rect id="type_text_frame" data-svgedit-frame-for="shape-inside" data-svgedit-text-frame="true" x="7" y="17" width="24" height="5" fill="none" opacity="0.5"/>
    <rect id="effect_text_frame" data-svgedit-frame-for="shape-inside" data-svgedit-text-frame="true" x="7" y="60" width="49" height="18" fill="none" opacity="0.5"/>
  </defs>
  <rect width="63" height="88" rx="3" fill="#201f1d"/>
  <rect x="3" y="3" width="57" height="82" rx="2" fill="#eee2c5"/>
  <rect x="3" y="3" width="57" height="13" rx="2" fill="#8f2f1f"/>
  <text id="title" x="7" y="11" font-family="Arial, sans-serif" font-size="4.3" font-weight="700" fill="#fff8e8" data-svgedit-wrap-width="38" data-svgedit-wrap-height="8">Card Title</text>
  <circle cx="52" cy="9.5" r="5.5" fill="#2f2923" stroke="#f4c15d" stroke-width="0.8"/>
  <text id="cost" x="52" y="11.4" text-anchor="middle" font-family="Arial, sans-serif" font-size="5.3" font-weight="700" fill="#f4c15d">3</text>
  <text id="card_type" x="7" y="22" font-family="Arial, sans-serif" font-size="3.1" font-weight="700" fill="#8f2f1f">Part</text>
  <rect x="42" y="18" width="14" height="6.5" rx="1.2" fill="#2f2923"/>
  <text id="slot" x="49" y="22.7" text-anchor="middle" font-family="Arial, sans-serif" font-size="3.4" font-weight="700" fill="#fff8e8">Front</text>
  <rect x="7" y="27" width="49" height="27" rx="1.5" fill="#d0b27a" stroke="#201f1d" stroke-width="0.5"/>
  <image id="card_artwork" x="8" y="28" width="47" height="25" href="/placeholder.svg" preserveAspectRatio="xMidYMid slice"/>
  <rect x="7" y="57" width="49" height="21" rx="1.5" fill="#fff8e8" stroke="#201f1d" stroke-width="0.5"/>
  <text id="effect" x="10" y="63" font-family="Arial, sans-serif" font-size="2.7" fill="#201f1d" data-svgedit-wrap-width="43" data-svgedit-wrap-height="13" data-svgedit-line-height="3.3">Effect text</text>
  <rect x="7" y="80" width="15" height="4" rx="1" fill="#8f2f1f"/>
  <text x="14.5" y="83" text-anchor="middle" font-family="Arial, sans-serif" font-size="2.2" font-weight="700" fill="#fff8e8">RUSTFANG</text>
  <text x="31.5" y="83" text-anchor="middle" font-family="Arial, sans-serif" font-size="2.2" fill="#5f564a">Durability</text>
  <rect x="47" y="79" width="9" height="6" rx="1.2" fill="#2f2923"/>
  <text id="durability" x="51.5" y="83.7" text-anchor="middle" font-family="Arial, sans-serif" font-size="4.2" font-weight="700" fill="#f4c15d">2</text>
</svg>
