<svg xmlns="http://www.w3.org/2000/svg" xmlns:svg="http://www.w3.org/2000/svg" width="63mm" height="88mm" viewBox="0 0 63 88" id="svgcontent" x="219.9318181818182" y="48.00000000000003" overflow="hidden"><defs><rect x="30.33" y="63.78" width="192" height="72" id="rect_svg_3"/><rect x="50.76" y="52.21" width="96" height="36" id="rect_svg_4"/><rect x="0" y="0" width="96" height="36" id="rect_text_3"/><rect x="32.00458717390276" y="62.56880799962144" width="192" height="72" id="rect_svg_6"/><rect x="30.33" y="63.78" width="192" height="72" id="rect_svg_3_1"/><rect x="50.76" y="52.21" width="96" height="36" id="rect_svg_4_1"/><rect x="32.00458717390276" y="62.56880799962144" width="192" height="72" id="rect_svg_6_1"/><rect x="0" y="0" width="96" height="36" id="rect_text_4"/><rect x="15.454127869892346" y="57.92660599971609" width="192" height="72" id="rect_svg_9"/><rect x="30.33" y="63.78" width="192" height="72" id="rect_svg_3_2"/><rect x="50.76" y="52.21" width="96" height="36" id="rect_svg_4_2"/><rect x="32.00458717390276" y="62.56880799962144" width="192" height="72" id="rect_svg_6_2"/><rect x="0" y="0" width="192" height="72" id="rect_text_5"/><rect x="16.26146734813676" y="57.321101391032784" width="192" height="72" id="rect_svg_9_1"/><rect x="30.33" y="63.78" width="192" height="72" id="rect_svg_3_3"/><rect x="32.00458717390276" y="62.56880799962144" width="192" height="72" id="rect_svg_6_3"/><rect x="16.26146734813676" y="57.321101391032784" width="192" height="72" id="rect_svg_9_2"/><rect x="0" y="0" width="96" height="36" id="rect_text_5_1"/><rect x="30.33" y="63.78" width="192" height="72" id="rect_svg_3_4"/><rect x="32.00458717390276" y="62.56880799962144" width="192" height="72" id="rect_svg_6_4"/><rect x="16.26146734813676" y="57.321101391032784" width="192" height="72" id="rect_svg_9_3"/><rect x="0" y="0" width="192" height="72" id="rect_text_4_1"/><rect x="15.85779760901454" y="17.761466957056683" width="192" height="72" id="rect_svg_10"/><rect x="6.5733936092038325" y="9.284402435490364" width="192" height="72" id="rect_svg_11"/></defs><g class="layer" style="pointer-events: all;"><title style="pointer-events: inherit;">Layer 1</title><rect fill="#d23232" height="20.68" id="svg_1" stroke="#000000" transform="matrix(1 0 0 1 13.6693 -10.5148)" width="13.67" x="23.26" y="24.72" style="pointer-events: inherit;"/><text fill="#000000" font-family="serif" font-size="24" id="svg_3" stroke="#000000" stroke-width="0" text-anchor="middle" x="30.33" xml:space="preserve" y="63.78" letter-spacing="0px" font-style="normal" font-weight="normal" display="inline" style="pointer-events:inherit;shape-inside:url(#rect_svg_3_4);white-space:pre;display:inline;text-align:center;line-height:1.25"><tspan x="126.33" y="87.78"> </tspan></text><ellipse cx="42" cy="71" fill="#000000" id="svg_5" rx="9" ry="3" stroke="#000000" stroke-width="0" style="pointer-events: inherit;"/><text fill="#000000" stroke="#000000" stroke-width="0" x="32.00458717390276" y="62.56880799962144" id="svg_6" font-size="24" font-family="serif" text-anchor="middle" xml:space="preserve" letter-spacing="0px" font-style="normal" font-weight="normal" display="inline" style="pointer-events:inherit;shape-inside:url(#rect_svg_6_4);white-space:pre;display:inline;text-align:center;line-height:1.25"><tspan x="128.00458717390276" y="86.56880799962144"> </tspan></text><text fill="#000000" stroke="#000000" stroke-width="0" stroke-dasharray="null" stroke-linejoin="null" stroke-linecap="null" stroke-opacity="null" fill-opacity="null" x="16.26146734813676" y="57.321101391032784" id="svg_9" font-size="24" font-family="serif" text-anchor="middle" xml:space="preserve" letter-spacing="0px" font-style="normal" font-weight="normal" display="inline" style="pointer-events:inherit;shape-inside:url(#rect_svg_9_3);white-space:pre;display:inline;text-align:center;line-height:1.25"><tspan x="112.26146734813676" y="81.32110139103278"> </tspan></text><text fill="#000000" stroke="#64748b" stroke-width="0" stroke-dasharray="4,4" stroke-linejoin="null" stroke-linecap="null" stroke-opacity="null" fill-opacity="null" x="15.85779760901454" y="17.761466957056683" id="svg_10" font-size="24" font-family="serif" text-anchor="middle" xml:space="preserve" transform="matrix(2.2445 0 0 1 -135.473 0)" style="shape-inside:url(#rect_svg_10);white-space:pre;display:inline;text-align:center;font-weight:normal;font-style:normal;letter-spacing:0px;line-height:1.25"/><text fill="#000000" stroke="#64748b" stroke-width="0" stroke-dasharray="4,4" stroke-linejoin="null" stroke-linecap="null" stroke-opacity="null" fill-opacity="null" style="pointer-events:inherit;shape-inside:url(#rect_svg_11);white-space:pre;display:inline;text-align:center;font-weight:normal;font-style:normal;letter-spacing:0px;line-height:1.25" x="6.5733936092038325" y="9.284402435490364" id="svg_11" font-size="24" font-family="serif" text-anchor="middle" xml:space="preserve"><tspan x="102.57339360920383" y="33.284402435490364"> </tspan></text></g></svg>