<svg xmlns="http://www.w3.org/2000/svg" width="63mm" height="88mm" viewBox="0 0 63 88" id="svgcontent" x="219.9318181818182" y="48.00000000000003" overflow="hidden"><defs><rect x="0" y="0" width="192" height="72" id="rect_text_1"/><rect x="28.97706413048621" y="40.77064208702237" width="192" height="72" id="rect_svg_1"/><rect x="0" y="0" width="96" height="48" id="rect_text_1_1"/><rect x="36.24311943468592" y="59.33945008664381" width="96" height="48" id="rect_svg_4"/><rect x="29.98623847829174" y="54.29357834761625" width="96" height="48" id="rect_svg_5"/><rect x="29.98623847829174" y="54.29357834761625" width="96" height="48" id="rect_svg_5_1"/><rect x="0" y="0" width="96" height="48" id="rect_text_3"/><rect x="60.46330378201822" y="59.137615217082704" width="96" height="48" id="rect_svg_2"/><rect x="29.98623847829174" y="54.29357834761625" width="96" height="48" id="rect_svg_5_2"/><rect x="60.46330378201822" y="59.137615217082704" width="96" height="48" id="rect_svg_2_1"/><rect x="0" y="0" width="96" height="48" id="rect_text_3_1"/><rect x="18.077981174186675" y="29.26605452203953" width="96" height="48" id="rect_svg_6"/><rect x="0" y="0" width="96" height="48" id="rect_text_4"/><rect x="4.522719860076904" y="14.172590255737305" width="51.49785280227661" height="37.83378791809082" id="rect_flow_text"/><rect x="0" y="0" width="96" height="48" id="rect_text_2"/><rect x="6.491398334503174" y="10.225772857666016" width="33.54873991012573" height="21.134319305419922" id="rect_flow_text_1"/><rect x="0" y="0" width="96" height="48" id="rect_text_2_1"/><rect x="8.093462944030762" y="16.112886428833008" width="26.5933198928833" height="24.557626724243164" id="rect_flow_text_2"/><rect x="0" y="0" width="96" height="48" id="rect_text_2_2"/></defs><g class="layer" style="pointer-events: none;"><title style="pointer-events: inherit;">Layer 1</title></g><g class="layer" style="pointer-events: all;"><title style="pointer-events: inherit;">Layer 2</title></g></svg>