<svg xmlns="http://www.w3.org/2000/svg" xmlns:svg="http://www.w3.org/2000/svg" width="63mm" height="88mm" version="1.1" xml:space="preserve" viewBox="0 0 63 88">
 <defs id="defs1">
  <rect height="130" id="rect1" width="210" x="100" y="120"/>
  <rect data-svgedit-frame-for="shape-inside" data-svgedit-text-frame="true" fill="none" height="120" id="svg_1" opacity="0.5" width="10" x="20" y="60"/>
  <rect data-svgedit-frame-for="shape-inside" data-svgedit-text-frame="true" fill="none" height="120" id="svg_3" opacity="0.5" width="240" x="40" y="60"/>
  <rect data-svgedit-frame-for="shape-inside" data-svgedit-text-frame="true" fill="none" height="120" id="svg_2" opacity="0.5" width="240" x="70" y="50"/>
  <rect data-svgedit-frame-for="shape-inside" data-svgedit-text-frame="true" fill="none" height="10" id="svg_4" opacity="0.5" width="30" x="30" y="50"/>
  <rect data-svgedit-frame-for="shape-inside" data-svgedit-text-frame="true" fill="none" height="120" id="svg_6" opacity="0.5" width="240" x="40" y="40"/>
  <rect data-svgedit-frame-for="shape-inside" data-svgedit-text-frame="true" fill="none" height="120" id="svg_8" opacity="0.5" width="70" x="-40" y="70"/>
  <rect data-svgedit-frame-for="shape-inside" data-svgedit-text-frame="true" fill="none" height="10" id="svg_10" opacity="0.5" width="30" x="40" y="70"/>
  <rect data-svgedit-frame-for="shape-inside" data-svgedit-text-frame="true" fill="none" height="120" id="svg_12" opacity="0.5" width="240" x="80" y="40"/>
  <rect data-svgedit-frame-for="shape-inside" data-svgedit-text-frame="true" fill="none" height="120" id="svg_14" opacity="0.5" width="240" x="80" y="40"/>
  <rect data-svgedit-frame-for="shape-inside" data-svgedit-text-frame="true" fill="none" height="120" id="svg_7" opacity="0.5" width="240" x="70" y="70"/>
 </defs>
 <g class="layer">
  <title>Layer 1</title>
  <g id="layer1" transform="matrix(1 0 0 1 0 0)">
   <image height="88" href="../../files/template_blank.png" id="background" preserveAspectRatio="none" width="63" x="0" y="0"/>
   <image height="35.64" href="../../files/dice_6.png" id="dice_image" preserveAspectRatio="none" width="35.64" x="13.62" y="14.59"/>
   <text data-svgedit-line-height="51.2" data-svgedit-multiline="true" data-svgedit-raw-text="Sfds f" data-svgedit-shape-inside-ref="#rect1" data-svgedit-text-overflow="false" data-svgedit-wrap-height="130" data-svgedit-wrap-width="210" display="inline" font-family="sans-serif" font-size="42.67" font-stretch="normal" font-style="normal" font-weight="normal" id="effect_zone" letter-spacing="0px" style="text-align:center" text-anchor="start" transform="matrix(0.264583 0 0 0.264583 -23.2253 24.0748)" x="100" xml:space="preserve" y="162.67">
    <tspan id="svg_5" x="150.46" y="162.67">Sfds f</tspan>
   </text>
  </g>
 </g>
</svg>