<svg xmlns="http://www.w3.org/2000/svg" width="63mm" height="88mm" viewBox="0 0 63 88">
  <rect width="63" height="88" rx="3" fill="#2b2722"/>
  <rect x="3" y="3" width="57" height="82" rx="2" fill="#eadfca"/>
  <rect x="3" y="3" width="57" height="13" rx="2" fill="#6f4d31"/>
  <text id="title" x="31.5" y="11" text-anchor="middle" font-family="Arial, sans-serif" font-size="4.8" font-weight="700" fill="#fff">Road</text>
  <text id="card_type" x="7" y="21" font-family="Arial, sans-serif" font-size="3.2" font-weight="700" fill="#6f4d31">Road</text>
  <rect x="44" y="18" width="12" height="10" rx="1.5" fill="#b9472f"/>
  <text id="miles" x="50" y="25.5" text-anchor="middle" font-family="Arial, sans-serif" font-size="6" font-weight="700" fill="#fff">2</text>
  <path d="M31.5 31 C25 40 25 54 31.5 63 C38 54 38 40 31.5 31 Z" fill="#c9b58f" stroke="#2b2722" stroke-width="0.7"/>
  <path d="M31.5 34 C29 43 29 52 31.5 60" fill="none" stroke="#eadfca" stroke-width="1" stroke-dasharray="3 2"/>
  <rect x="7" y="65" width="49" height="7" rx="1.2" fill="#fffaf0" stroke="#2b2722" stroke-width="0.4"/>
  <text id="hazard" x="9" y="70" font-family="Arial, sans-serif" font-size="3" fill="#2b2722">Hazard</text>
  <rect x="7" y="75" width="49" height="7" rx="1.2" fill="#fffaf0" stroke="#2b2722" stroke-width="0.4"/>
  <text id="reward" x="9" y="80" font-family="Arial, sans-serif" font-size="3" fill="#2b2722">Reward</text>
  <text id="effect" x="7" y="59" font-family="Arial, sans-serif" font-size="3" fill="#2b2722" data-svgedit-wrap-width="49" data-svgedit-wrap-height="8" data-svgedit-line-height="3.5">Effect</text>
</svg>
